#!OML:ASF X:\für Bonn\!DataBase\2005_08_12_Daniel\c3d\Daniel.ASF
:FULLY-SPECIFIED
:DEGREES
128
root -3.0645 13.1317 -2.58666 319.857 -80.8164 -340.079
lowerback 39.9239 -3.5691 -1.50206
upperback 2.82281 -6.27856 -2.79537
thorax -16.6195 -2.86387 0.752784
lowerneck 0.36066 1.34767 -3.89258
upperneck 2.31433 1.77004 1.35983
head 0.602737 0.856921 1.07204
rclavicle -4.12478e-014 6.75868e-015
rhumerus 64.7737 -14.039 -122.977
rradius 9.60926
rwrist 98.7497
rhand -17.887 15.2573
rfingers 7.12502
rthumb 8.37939 -14.5565
lclavicle -4.12478e-014 6.75868e-015
lhumerus 66.6005 5.39579 102.975
lradius 8.31893
lwrist -77.2007
lhand -14.1397 4.68997
lfingers 7.12502
lthumb 11.9944 34.3263
rfemur -28.61 -30.1698 -6.83585
rtibia 96.8257
rfoot -13.4267 33.2113
rtoes -3.46343
lfemur -34.735 8.97263 -13.7771
ltibia 94.3341
lfoot -25.2249 -30.5715
ltoes 9.24381
129
root -3.05734 13.3243 -2.57874 319.529 -80.8828 -339.446
lowerback 39.5516 -3.51928 -1.64106
upperback 2.69565 -6.25892 -2.80297
thorax -16.6259 -2.84179 0.794264
lowerneck 0.345444 1.34708 -3.61878
upperneck 2.4157 1.77065 1.25217
head 0.63906 0.857634 0.992411
rclavicle 6.2642e-014 -2.3059e-014
rhumerus 64.7966 -13.9369 -122.875
rradius 9.25952
rwrist 98.7475
rhand -17.8503 15.0567
rfingers 7.12502
rthumb 8.41479 -14.7557
lclavicle 6.2642e-014 -2.3059e-014
lhumerus 66.2456 5.66137 102.91
lradius 8.39073
lwrist -77.2158
lhand -14.0331 4.49523
lfingers 7.12502
lthumb 12.0972 34.1255
rfemur -27.8352 -29.3384 -5.95635
rtibia 94.6449
rfoot -14.4145 32.1591
rtoes -4.1234
lfemur -33.5496 7.86945 -14.4929
ltibia 92.1133
lfoot -26.2291 -29.0153
ltoes 8.56497
130
root -3.04959 13.5145 -2.5708 319.27 -80.9635 -338.881
lowerback 39.1541 -3.48382 -1.72707
upperback 2.58483 -6.23267 -2.81076
thorax -16.6066 -2.8219 0.803112
lowerneck 0.303665 1.34212 -3.41407
upperneck 2.51786 1.76625 1.16208
head 0.679595 0.855534 0.930641
rclavicle -1.4561e-014 1.23246e-014
rhumerus 64.9783 -13.7395 -122.809
rradius 8.82043
rwrist 98.7821
rhand -17.7807 14.7739
rfingers 7.12502
rthumb 8.48198 -15.0357
lclavicle -1.4561e-014 1.23246e-014
lhumerus 65.8919 5.89411 102.872
lradius 8.4736
lwrist -77.1942
lhand -13.9212 4.32834
lfingers 7.12502
lthumb 12.2051 33.9522
rfemur -27.0186 -28.5463 -5.10756
rtibia 92.4244
rfoot -15.2642 31.1524
rtoes -4.67831
lfemur -32.3754 6.76325 -15.1877
ltibia 89.8824
lfoot -27.2489 -27.352
ltoes 7.79575
131
root -3.04222 13.7001 -2.56352 319.03 -81.0345 -338.312
lowerback 38.7188 -3.46159 -1.78127
upperback 2.46929 -6.20809 -2.82459
thorax -16.5809 -2.80511 0.78793
lowerneck 0.274853 1.34739 -3.34957
upperneck 2.62219 1.7732 1.17977
head 0.716768 0.858689 0.926416
rclavicle 1.59276e-014 -1.86858e-014
rhumerus 65.2356 -13.4998 -122.761
rradius 8.32604
rwrist 98.8182
rhand -17.617 14.493
rfingers 7.12502
rthumb 8.63998 -15.3102
lclavicle 1.59276e-014 -1.86858e-014
lhumerus 65.5185 6.13292 102.836
lradius 8.55992
lwrist -77.0882
lhand -13.8665 4.11254
lfingers 7.12502
lthumb 12.2579 33.7333
rfemur -26.2077 -27.8186 -4.29722
rtibia 90.1987
rfoot -16.2673 30.0883
rtoes -5.53414
lfemur -31.2427 5.62963 -15.876
ltibia 87.6521
lfoot -28.2452 -25.6271
ltoes 7.03346
132
root -3.03583 13.8809 -2.55678 318.742 -81.1417 -337.711
lowerback 38.2807 -3.43505 -1.81319
upperback 2.35373 -6.16416 -2.81741
thorax -16.5514 -2.78116 0.775039
lowerneck 0.289233 1.35278 -3.42827
upperneck 2.68139 1.77832 1.24311
head 0.731629 0.860267 0.959973
rclavicle -1.01132e-014 -5.1684e-015
rhumerus 65.48 -13.2418 -122.659
rradius 7.83276
rwrist 98.7802
rhand -17.3978 14.2024
rfingers 7.12502
rthumb 8.85145 -15.592
lclavicle -1.01132e-014 -5.1684e-015
lhumerus 65.1157 6.36421 102.853
lradius 8.68562
lwrist -76.9889
lhand -13.7372 3.96662
lfingers 7.12502
lthumb 12.3825 33.5799
rfemur -25.3389 -27.0475 -3.50879
rtibia 87.9341
rfoot -17.1105 29.1232
rtoes -6.26105
lfemur -30.105 4.53732 -16.5194
ltibia 85.4327
lfoot -29.2103 -23.8161
ltoes 6.06495
133
root -3.02859 14.0589 -2.55088 318.462 -81.2209 -337.127
lowerback 37.8612 -3.4267 -1.82038
upperback 2.2284 -6.1387 -2.83712
thorax -16.5447 -2.76668 0.729618
lowerneck 0.323364 1.35873 -3.46696
upperneck 2.76649 1.78312 1.29708
head 0.751522 0.861576 0.983843
rclavicle 1.07816e-013 9.93923e-015
rhumerus 65.6335 -13.0632 -122.565
rradius 7.422
rwrist 98.7736
rhand -17.1656 13.9499
rfingers 7.12502
rthumb 9.07557 -15.8348
lclavicle 1.07816e-013 9.93923e-015
lhumerus 64.6892 6.57992 102.84
lradius 8.79466
lwrist -76.8405
lhand -13.6031 3.88504
lfingers 7.12502
lthumb 12.5118 33.4905
rfemur -24.4246 -26.2522 -2.77526
rtibia 85.6612
rfoot -17.9364 28.1492
rtoes -6.9267
lfemur -28.9845 3.40506 -17.1727
ltibia 83.2136
lfoot -30.1001 -21.9236
ltoes 5.07495
134
root -3.0214 14.2326 -2.54525 318.13 -81.3137 -336.473
lowerback 37.346 -3.41037 -1.81963
upperback 2.17642 -6.09692 -2.86864
thorax -16.5272 -2.74576 0.682718
lowerneck 0.372346 1.36801 -3.47309
upperneck 2.83272 1.79218 1.32798
head 0.763329 0.865278 0.994651
rclavicle -1.47846e-014 -1.63003e-014
rhumerus 65.6624 -12.964 -122.424
rradius 7.14571
rwrist 98.7281
rhand -16.8845 13.7928
rfingers 7.12502
rthumb 9.34679 -15.9799
lclavicle -1.47846e-014 -1.63003e-014
lhumerus 64.2635 6.77381 102.846
lradius 8.88259
lwrist -76.6682
lhand -13.5344 3.85766
lfingers 7.12502
lthumb 12.5781 33.459
rfemur -23.5057 -25.3793 -2.05333
rtibia 83.3738
rfoot -18.6061 27.2276
rtoes -7.38903
lfemur -27.8877 2.26496 -17.8
ltibia 81.0008
lfoot -30.8196 -20.1052
ltoes 4.23047
135
root -3.01468 14.4016 -2.54099 317.76 -81.3977 -335.776
lowerback 36.9044 -3.38679 -1.86298
upperback 2.03558 -6.06014 -2.85644
thorax -16.5194 -2.72256 0.685897
lowerneck 0.450279 1.39183 -3.52511
upperneck 2.90425 1.81953 1.34891
head 0.771233 0.877271 1.00995
rclavicle -3.0911e-014 -7.95139e-016
rhumerus 65.4652 -12.9131 -122.212
rradius 7.05378
rwrist 98.6449
rhand -16.5795 13.7286
rfingers 7.12502
rthumb 9.64108 -16.0308
lclavicle -3.0911e-014 -7.95139e-016
lhumerus 63.8095 7.01662 102.878
lradius 8.99475
lwrist -76.475
lhand -13.4008 3.88026
lfingers 7.12502
lthumb 12.7068 33.4737
rfemur -22.5932 -24.4605 -1.3654
rtibia 81.1048
rfoot -19.2204 26.3377
rtoes -7.69331
lfemur -26.8272 1.1268 -18.4118
ltibia 78.8104
lfoot -31.4042 -18.2666
ltoes 3.27896
